<svg width="35" height="33" fill="none" xmlns="http://www.w3.org/2000/svg"><path d="M32.958 1l-13.134 9.718 2.443-5.727L32.958 1z" fill="#E17726" stroke="#E17726" stroke-width=".25" stroke-linecap="round" stroke-linejoin="round"/><path d="M2.663 1l13.017 9.809-2.325-5.818L2.663 1zm25.566 22.533l-3.495 5.339 7.483 2.06 2.144-7.282-6.132-.117zm-26.957.117l2.131 7.282 7.47-2.06-3.482-5.339-6.119.117z" fill="#E27625" stroke="#E27625" stroke-width=".25" stroke-linecap="round" stroke-linejoin="round"/><path d="M10.47 14.515L8.392 17.65l7.405.337-.247-7.97-5.08 4.497zm14.68 0l-5.157-4.587-.169 8.06 7.405-.337-2.078-3.136zM10.873 28.872l4.482-2.164-3.858-3.006-.624 5.17zm9.393-2.164l4.469 2.164-.611-5.17-3.858 3.006z" fill="#E27625" stroke="#E27625" stroke-width=".25" stroke-linecap="round" stroke-linejoin="round"/><path d="M24.735 28.872l-4.47-2.164.364 2.902-.039 1.232 4.145-1.97zm-13.862 0l4.157 1.97-.026-1.232.35-2.902-4.481 2.164z" fill="#D5BFB2" stroke="#D5BFB2" stroke-width=".25" stroke-linecap="round" stroke-linejoin="round"/><path d="M15.108 21.784l-3.715-1.089 2.624-1.205 1.091 2.294zm5.405 0l1.091-2.294 2.637 1.205-3.728 1.089z" fill="#233447" stroke="#233447" stroke-width=".25" stroke-linecap="round" stroke-linejoin="round"/><path d="M10.873 28.872l.65-5.339-4.131.117 3.481 5.222zm13.225-5.339l.636 5.339 3.495-5.222-4.131-.117zm3.132-5.883l-7.406.337.689 3.797 1.091-2.294 2.637 1.206 2.988-3.046zm-15.837 3.045l2.624-1.205 1.091 2.294.689-3.797-7.405-.337 3 3.046z" fill="#CC6228" stroke="#CC6228" stroke-width=".25" stroke-linecap="round" stroke-linejoin="round"/><path d="M8.393 17.65l3.104 6.052-.104-3.007-3-3.045zm15.847 3.045l-.116 3.007 3.105-6.052-2.988 3.046zm-8.443-2.708l-.689 3.797.87 4.483.196-5.908-.377-2.372zm4.027 0l-.364 2.359.182 5.921.87-4.483-.688-3.797z" fill="#E27525" stroke="#E27525" stroke-width=".25" stroke-linecap="round" stroke-linejoin="round"/><path d="M20.513 21.784l-.87 4.483.623.44 3.859-3.006.116-3.006-3.728 1.089zm-9.12-1.089l.104 3.006 3.858 3.007.623-.44-.87-4.484-3.715-1.089z" fill="#F5841F" stroke="#F5841F" stroke-width=".25" stroke-linecap="round" stroke-linejoin="round"/><path d="M20.59 30.842l.04-1.231-.338-.285h-4.963l-.325.285.026 1.23-4.157-1.969 1.455 1.192 2.949 2.035h5.054l2.962-2.035 1.442-1.192-4.145 1.97z" fill="#C0AC9D" stroke="#C0AC9D" stroke-width=".25" stroke-linecap="round" stroke-linejoin="round"/><path d="M20.265 26.708l-.623-.44h-3.664l-.623.44-.351 2.903.325-.285h4.962l.338.285-.364-2.903z" fill="#161616" stroke="#161616" stroke-width=".25" stroke-linecap="round" stroke-linejoin="round"/><path d="M33.517 11.353L34.62 5.99 32.958 1l-12.692 9.394 4.884 4.12 6.898 2.01 1.52-1.776-.662-.48 1.052-.958-.805-.622 1.052-.804-.688-.53zM1 5.989l1.117 5.364-.714.531 1.065.804-.805.622 1.052.959-.663.48 1.52 1.774 6.899-2.008 4.884-4.12L2.663 1 1 5.989z" fill="#763E1A" stroke="#763E1A" stroke-width=".25" stroke-linecap="round" stroke-linejoin="round"/><path d="M32.049 16.523l-6.899-2.008 2.079 3.135-3.105 6.052 4.105-.052h6.132l-2.312-7.127zM10.47 14.515l-6.898 2.008-2.3 7.127h6.12l4.104.052-3.104-6.052 2.078-3.135zm9.354 3.473l.442-7.593 2-5.404h-8.911l2 5.404.442 7.593.169 2.384.013 5.896h3.663l.013-5.896.17-2.384z" fill="#F5841F" stroke="#F5841F" stroke-width=".25" stroke-linecap="round" stroke-linejoin="round"/></svg>